<svg width="100%" viewBox="0 0 680 540" xmlns="http://www.w3.org/2000/svg">
<defs>
  <marker id="arrow" viewBox="0 0 10 10" refX="8" refY="5" markerWidth="6" markerHeight="6" orient="auto-start-reverse">
    <path d="M2 1L8 5L2 9" fill="none" stroke="context-stroke" stroke-width="1.5" stroke-linecap="round" stroke-linejoin="round"/>
  </marker>
</defs>
<g class="c-gray">
  <rect x="40" y="15" width="140" height="36" rx="6" stroke-width="0.5"/>
  <text class="th" x="110" y="27" text-anchor="middle" dominant-baseline="central">Key AXI-S</text>
  <text class="ts" x="110" y="43" text-anchor="middle" dominant-baseline="central">32B, MSB-first</text>
</g>
<g class="c-gray">
  <rect x="225" y="15" width="120" height="36" rx="6" stroke-width="0.5"/>
  <text class="th" x="285" y="27" text-anchor="middle" dominant-baseline="central">RX header</text>
  <text class="ts" x="285" y="43" text-anchor="middle" dominant-baseline="central">total_len</text>
</g>
<g class="c-gray">
  <rect x="385" y="15" width="255" height="36" rx="6" stroke-width="0.5"/>
  <text class="th" x="512" y="27" text-anchor="middle" dominant-baseline="central">RX payload</text>
  <text class="ts" x="512" y="43" text-anchor="middle" dominant-baseline="central">8-bit: IV + CT + Tag</text>
</g>
<rect x="25" y="68" width="630" height="390" rx="16" fill="none" stroke="var(--s)" stroke-width="1"/>
<text class="th" x="340" y="86" text-anchor="middle" dominant-baseline="central">gcm_axi_decrypt</text>
<line x1="110" y1="51" x2="110" y2="108" class="arr" marker-end="url(#arrow)" stroke-width="0.5"/>
<line x1="285" y1="51" x2="285" y2="204" class="arr" marker-end="url(#arrow)" stroke-width="0.5"/>
<line x1="512" y1="51" x2="512" y2="108" class="arr" marker-end="url(#arrow)" stroke-width="0.5"/>
<g class="c-purple">
  <rect x="40" y="108" width="175" height="44" rx="8" stroke-width="0.5"/>
  <text class="th" x="128" y="124" text-anchor="middle" dominant-baseline="central">gcm_axi_config</text>
  <text class="ts" x="128" y="142" text-anchor="middle" dominant-baseline="central">Key register only</text>
</g>
<g class="c-coral">
  <rect x="385" y="108" width="255" height="56" rx="8" stroke-width="0.5"/>
  <text class="th" x="512" y="124" text-anchor="middle" dominant-baseline="central">gcm_rx_parser</text>
  <text class="ts" x="512" y="144" text-anchor="middle" dominant-baseline="central">Separates IV, CT bytes, tag</text>
</g>
<text class="ts" x="393" y="180" text-anchor="start" dominant-baseline="central">IV (96b)</text>
<text class="ts" x="500" y="180" text-anchor="start" dominant-baseline="central">CT bytes</text>
<text class="ts" x="600" y="180" text-anchor="start" dominant-baseline="central">Tag (128b)</text>
<g class="c-amber">
  <rect x="440" y="192" width="160" height="36" rx="8" stroke-width="0.5"/>
  <text class="th" x="520" y="210" text-anchor="middle" dominant-baseline="central">Width converter</text>
</g>
<g class="c-purple">
  <rect x="440" y="244" width="160" height="36" rx="8" stroke-width="0.5"/>
  <text class="th" x="520" y="262" text-anchor="middle" dominant-baseline="central">gcm_rx_shim</text>
</g>
<g class="c-coral">
  <rect x="100" y="204" width="310" height="44" rx="8" stroke-width="0.5"/>
  <text class="th" x="255" y="220" text-anchor="middle" dominant-baseline="central">Decrypt sequencing FSM</text>
  <text class="ts" x="255" y="238" text-anchor="middle" dominant-baseline="central">+ tag comparison</text>
</g>
<g class="c-teal">
  <rect x="60" y="300" width="250" height="56" rx="8" stroke-width="0.5"/>
  <text class="th" x="185" y="320" text-anchor="middle" dominant-baseline="central">aes_gcm_256</text>
  <text class="ts" x="185" y="340" text-anchor="middle" dominant-baseline="central">Decrypt mode (mode=1)</text>
</g>
<g class="c-purple">
  <rect x="370" y="300" width="250" height="56" rx="8" stroke-width="0.5"/>
  <text class="th" x="495" y="320" text-anchor="middle" dominant-baseline="central">gcm_pt_serializer</text>
  <text class="ts" x="495" y="340" text-anchor="middle" dominant-baseline="central">PT blocks → bytes</text>
</g>
<g class="c-gray">
  <rect x="370" y="480" width="170" height="44" rx="8" stroke-width="0.5"/>
  <text class="th" x="455" y="496" text-anchor="middle" dominant-baseline="central">TX payload</text>
  <text class="ts" x="455" y="512" text-anchor="middle" dominant-baseline="central">8-bit plaintext</text>
</g>
<g class="c-gray">
  <rect x="100" y="480" width="180" height="44" rx="8" stroke-width="0.5"/>
  <text class="th" x="190" y="496" text-anchor="middle" dominant-baseline="central">Auth result</text>
  <text class="ts" x="190" y="512" text-anchor="middle" dominant-baseline="central">authOk / authFail</text>
</g>
<path d="M40 130 L33 130 L33 325 L60 325" fill="none" class="arr" marker-end="url(#arrow)" stroke-width="0.5"/>
<text class="ts" x="37" y="240" text-anchor="start" dominant-baseline="central" transform="rotate(-90,37,240)">key</text>
<path d="M405 164 L405 204" fill="none" class="arr" marker-end="url(#arrow)" stroke-width="0.5"/>
<line x1="520" y1="164" x2="520" y2="192" class="arr" marker-end="url(#arrow)" stroke-width="0.5"/>
<path d="M620 164 L620 380 L410 380 L410 248" fill="none" stroke="var(--t)" stroke-width="0.5" stroke-dasharray="3 3" marker-end="url(#arrow)"/>
<text class="ts" x="628" y="280" text-anchor="start" dominant-baseline="central" transform="rotate(90,628,280)">tag (late)</text>
<line x1="520" y1="228" x2="520" y2="244" class="arr" marker-end="url(#arrow)" stroke-width="0.5"/>
<line x1="440" y1="262" x2="410" y2="236" class="arr" marker-end="url(#arrow)" stroke-width="0.5"/>
<path d="M393 175 L320 175 L320 204" fill="none" class="arr" stroke-width="0.5"/>
<line x1="170" y1="248" x2="155" y2="300" class="arr" marker-end="url(#arrow)" stroke-width="0.5"/>
<text class="ts" x="105" y="275" text-anchor="start" dominant-baseline="central">ct_in, start</text>
<line x1="210" y1="300" x2="225" y2="248" class="arr" marker-end="url(#arrow)" stroke-width="0.5"/>
<text class="ts" x="233" y="275" text-anchor="start" dominant-baseline="central">pt_out, done</text>
<line x1="410" y1="236" x2="495" y2="300" class="arr" marker-end="url(#arrow)" stroke-width="0.5"/>
<line x1="455" y1="356" x2="455" y2="480" class="arr" marker-end="url(#arrow)" stroke-width="0.5"/>
<line x1="190" y1="248" x2="190" y2="480" class="arr" marker-end="url(#arrow)" stroke-width="0.5"/>
<text class="ts" x="198" y="420" text-anchor="start" dominant-baseline="central">tag == parsed tag?</text>
</svg>
